<svg id="Camada_1" data-name="Camada 1" xmlns="http://www.w3.org/2000/svg" viewBox="0 0 1830.72 397.97"><defs><style>.cls-1{fill:#fff;}</style></defs><path class="cls-1" d="M391.36,199.28s-67.11,8.5-66.63,26.41c.67,24.71.18,96.3,0,114.91-30.81,4.75-60.69-49.12-80.84-36.23-7,15.23,4.49,13.28,7.08,26.79-31.17,3.09-61-10.28-82.42-24-11.17-7.16-21.46-14.33-30.76-22.57-10.23-9.06-16.8-22.15-29-27.53,0,.11-2.62,58.61-32.78,4.9-4.78-8.5-9.26-20.08-8.59-32.34,1-18.45,7.1-20.19,24-18.78-3.57-40.6-4.34-60.85,13.42-93.76,20.58-38.14,58-61.83,98.39-63.65H213a113.29,113.29,0,0,1,36,7.42c32.79,12.61,41,26.61,61.53,50.52,4.38,7.46,35.88,21.92,50.7-18.24l23.18-93C338.74,0,304.44,0,201.48,0c-7.29,0-14.32.25-21.22.6h-41Q0,.6,0,139.86V258.7Q0,398,139.25,398H391.36V220.82a15.72,15.72,0,0,0,0-7Z"/><path class="cls-1" d="M165.21,130.8c-13.39,1-23.34,21.32-22.22,45.42s12.87,42.87,26.26,41.89,23.33-21.32,22.21-45.43S178.59,129.82,165.21,130.8Z"/><path class="cls-1" d="M226.89,174.52c-.59,24.13,9.83,43.66,23.25,43.62s24.78-19.63,25.35-43.76-9.83-43.66-23.25-43.62S227.46,150.39,226.89,174.52Z"/><path class="cls-1" d="M755.7,141.66q-34.22-32.41-81.63-31.82H566q-39.62,4.22-61.82,36.62V.6L426.77,47.42V398H504.2V233.5q0-26.42,18.3-45.32t44.72-19.51h82.83q25.22-1.2,44.43,15.6,18.59,16.22,18,41.42V398h77.43V214.29Q789.91,169.88,755.7,141.66Z"/><path class="cls-1" d="M1174.67,139.86q-32.42-30.62-76.83-30H931q-44.43-.59-76.83,30-32.42,27-32.42,69v88.83a86.78,86.78,0,0,0,3.9,25.81,94.86,94.86,0,0,0,11.11,23.71,84.77,84.77,0,0,0,17.41,19.51q33,30.6,78,30h165.07q44.41.6,77.43-30,32.4-26.4,32.41-68.43V208.89Q1207.68,166.27,1174.67,139.86Zm-40.82,145.25q0,22.22-16.21,37.22-17.42,18-42.62,16.81H954.38q-25.21.6-43.22-16.81A53.65,53.65,0,0,1,895,284.51V220.89q0-22.2,16.21-37.82,18-18,43.22-16.8H1075q25.21-1.2,42.62,16.8,16.2,15,16.21,37.22Z"/><path class="cls-1" d="M1470,226.29H1333.73q-13.82.61-23.41-10.2a35.73,35.73,0,0,1-8.41-23.41,31.77,31.77,0,0,1,9-24q8.38-9.6,21.6-9.6H1513.8l15-48.62h-213.7q-36-1.2-60,25.8-23.41,25.22-23.41,59.43t23.41,59.42q24,26.43,60,25.21h142.27a25.18,25.18,0,0,1,21.61,9.61,31.57,31.57,0,0,1,9.6,24.61,35.12,35.12,0,0,1-9,24,30.92,30.92,0,0,1-23.41,10.2H1253.29L1237.69,398H1470q36,.59,60.63-25.81a91.17,91.17,0,0,0,0-120.65Q1506,225.1,1470,226.29Z"/><path class="cls-1" d="M1744.89,343.94q-22.82,2.42-39-13.2a55.52,55.52,0,0,1-10.2-34.22V160.27h95.44l16.8-50.43H1695.67V0l-79.23,47.42v62.42h-52.22l-16.81,50.43h69V308.53q-3,37.8,22.8,66,31.21,25.82,72.64,22.81h100.84l18-53.42Z"/></svg>