<?xml version="1.0" encoding="utf-8"?>
<svg id="a" viewBox="0 0 2000 2000" xmlns="http://www.w3.org/2000/svg">
  <defs>
    <style>.b{fill:#bfbfbf;}.c{fill:#7f7f7f;}.d{fill:#fefefe;}</style>
  </defs>
  <path d="M306.4,816.09l51.53,.02c54.22,.07,108.45,.13,162.67,.2,6.44,0,12.88,.08,19.33,.12-7.07,28.69-13.53,57.55-21.44,86.01-5.14,18.48-20.24,27.28-35.56,22.98-5.32-1.49-9.48-4.46-12.94-8.86-14.63-18.63-30.55-35.48-53.69-44.24-53.82-20.37-111.32,3.68-137.67,57.51-11.05,22.57-12.34,46.07-9.83,70.25,.65,6.27,1.83,11.53-7.91,9.84-3.74-.65-8.75,.2-10.54,5.33,1.39,5.14-1.68,10-1.12,15.01,1.69,15.29,7.86,28.76,18.25,40.05,6.08,6.61,10.45,5.24,12.96-3.33,.83-2.82,1.07-5.77,1.75-8.61,.62-2.62,.67-5.98,4.81-5.84,5.79,3.87,10.51,8.86,15.21,13.96,26.06,28.31,57.31,47.55,95.88,53.7,3.94,.63,8.02,.65,12.02,.57,1.9-.04,4.6,1.38,5.65-1.23,.87-2.18-.86-4.14-2.19-5.73-4.51-5.39-9.05-11.74-2.93-17.59,6.15-5.87,13.35-1.26,19.02,2.68,9.66,6.71,18.74,14.25,28.24,21.21,6.07,4.44,12.64,7.95,20.31,9.12,5.12,.78,7-.48,6.95-6.15-.29-31.53,.17-63.06-.35-94.58-.14-8.35,3.2-13.02,10.1-16.27,15.2-7.14,31.6-9.85,47.93-12.82,5.39-.98,3.88,2.97,3.89,5.49,.08,20.02,.04,40.03,.04,60.05,0,36.88-.07,73.76,.08,110.65,.02,4.71-.45,6.93-6.28,6.91-79.44-.31-158.88,.06-238.32-.6-33.95-.28-64.97-9.89-89.46-35.06-20.7-24.82-28.01-54.39-28.22-85.55-.31-46.68-2.23-93.44,1.22-140.06,1.95-26.29,10.03-50.7,28.5-70.59,18.55-19.99,42.59-28.82,68.89-32.58,7.67-1.1,15.46-1.33,23.19-1.96Z"/>
  <path d="M1128.69,916.57c24.39,.6,54.44-.91,84.48,.72,35.64,1.94,80.92,36.62,86.46,71.84,.58,3.68,1.43,7.39,1.44,11.09,.09,32.33,.77,64.67-.22,96.97-1.02,33.45-22.21,54.28-48.76,70.69-15.13,9.36-32,13.37-49.76,13.39-52.86,.05-105.72,.15-158.59-.02-44.77-.14-85.46-30.14-96.55-70.81-1.98-7.25-2.81-14.64-2.79-22.17,.07-25.38,.03-50.77,.03-76.15,0-44.84,32.93-84.37,77.39-93.22,14.62-2.91,29.36-2.24,44.08-2.31,19.05-.09,38.1-.02,62.8-.02Z"/>
  <path d="M651.23,815.79v132.75c3.5-3.66,6.24-6.55,9.01-9.41,14.76-15.25,32.99-22.58,54.04-22.49,35.69,.15,71.39-1,107.07,.65,39.67,1.84,89.63,40.31,93.31,82.78,.32,3.72,.73,7.45,.73,11.17,.05,54.54-.1,109.07,.21,163.61,.04,6.56-2.01,7.75-8,7.63-19.05-.37-38.13-.43-57.17,.03-6.31,.15-7.38-1.89-7.36-7.65,.23-49.46-.98-98.95,.53-148.36,1.01-32.98-25.59-54.55-51.61-55.15-28.69-.66-57.47-.95-86.12,.52-31.67,1.62-54.56,27.46-54.61,59.21-.08,47.85-.14,95.71,.12,143.56,.03,6.14-1.34,8.03-7.77,7.87-19.32-.47-38.66-.35-57.98-.05-5.22,.08-6.75-1.24-6.74-6.6,.16-103.46,.12-206.91,.12-310.37,0-3.15-.43-6.08,3.22-8.24,22.72-13.46,45.29-27.17,69.02-41.46Z"/>
  <path d="M1329.2,1182.11c4.51-14.13,9-27.48,12.95-41,1.26-4.31,3.88-4.26,7.24-4.25,22.28,.06,44.56,.03,66.85,.03,37.32,0,74.63-.05,111.95,.03,13.89,.03,24.56-5.18,30.19-18.26,5.72-13.3,3.75-25.47-6.3-36.24-5.26-5.64-11.43-8.19-19.23-8.17-44.03,.16-88.05,.1-132.08,.07-37.91-.03-69.3-26.21-75.88-63.23-6.73-37.81,13.97-76.36,48.02-89.49,7.86-3.03,16-4.4,24.38-4.4,66.3,.05,132.61,.13,198.91,.22,.52,0,1.05,.18,2.55,.46-4.39,14.2-8.64,28.34-13.19,42.38-1.29,3.99-5.13,1.94-7.68,1.95-52.35,.14-104.7,.25-157.05,0-12.5-.06-22.05,4.38-27.98,15.2-6.16,11.25-5.21,22.7,1.4,33.51,5.64,9.23,14.33,13.18,25.07,13.17,41.34-.05,82.69,.5,124.03-.18,40-.66,73.24,27.54,77.61,67.24,3.99,36.21-12.1,68.65-41.4,83.51-10.22,5.18-21.07,7.71-32.52,7.71-71.14,0-142.28,0-213.42,0-1.06,0-2.12-.11-4.4-.23Z"/>
  <path d="M1753.13,816.34v87.48q0,12.74,13.04,12.74c27.91,0,55.83,.13,83.74-.11,6-.05,7.43,1.04,5.1,7.08-4.32,11.19-8,22.64-11.43,34.13-1.38,4.61-3.4,6.14-8.31,6.09-25.23-.28-50.46,.03-75.69-.26-5.29-.06-6.61,1.38-6.58,6.58,.22,40.09-.02,80.18,.17,120.28,.14,27.35,15.8,42.16,43.41,42.02,26.82-.14,53.64-.03,81.54-.03-5.38,16.01-10.55,31.34-15.65,46.69-1.03,3.1-3.48,2.77-5.9,2.77-34.08,.08-68.23,1.49-102.24-.07-44.39-2.04-75.26-30.22-75.08-76.88,.17-44.64-.08-89.27,.18-133.91,.04-5.89-1.24-7.64-7.39-7.48-18.46,.46-36.94,.17-56.47,.17,5.16-15.36,10.12-29.94,14.92-44.57,1.12-3.41,3.76-2.44,5.96-2.45,12.08-.09,24.16-.29,36.23,.07,5.14,.15,6.89-1.13,6.75-6.54-.39-14.96-.05-29.93-.2-44.9-.04-3.72,.47-6.44,4.14-8.58,22.39-13.11,44.63-26.47,66.94-39.71,.6-.36,1.44-.33,2.81-.61Z"/>
  <path d="M394.25,977.47c.52-11.88,2.42-23.41,9.77-33.25,8.59-11.5,20.31-11.09,28.17,.82,10.8,16.38,9.87,47.36-1.91,63.16-9.06,12.15-21.03,11.52-29.03-1.52-4.54-7.41-7.16-18.37-6.99-29.2Z"/>
  <path d="M362.06,979.1c-.27,8.98-1.57,18.96-7.16,27.89-7.89,12.6-19.61,13.23-28.59,1.57-12.24-15.91-12.98-48.27-1.47-64.5,7.43-10.48,18.64-10.82,26.8-.81,6.5,7.98,10.37,20.85,10.41,35.86Z"/>
  <path class="d" d="M1123.68,1127.8c-18.79,0-37.58,.07-56.38-.01-32.46-.14-54.7-22.06-54.93-54.2-.13-17.11-.12-34.22,0-51.33,.22-31.09,22.78-53.27,54.07-53.28,38.12,0,76.26,.58,114.36-.2,26.02-.53,54.23,23.58,52.47,52.36-1.14,18.64-.16,37.41-.23,56.13-.1,27.42-22.2,50-49.76,50.46-19.86,.33-39.73,.06-59.6,.07Z" style="fill: rgb(30, 30, 30);"/>
</svg>