<svg id="Camada_1" data-name="Camada 1" xmlns="http://www.w3.org/2000/svg" viewBox="0 0 1920 1080" style="fill: url(#gradient1);"><defs><linearGradient id="gradient1" gradientTransform="rotate(101.9deg)"><stop offset="7.67%" stop-color="#6477DD"/><stop offset="52.66%" stop-color="#C753C1"/><stop offset="93.7%" stop-color="#DC1DC3"/></linearGradient></defs><path d="M435.64,504.28s-67.12,8.5-66.63,26.41c.67,24.71.18,96.3,0,114.91-30.81,4.75-60.69-49.12-80.84-36.23-7,15.23,4.49,13.28,7.07,26.79-31.16,3.09-61-10.28-82.41-24-11.18-7.16-21.46-14.33-30.76-22.57-10.24-9.06-16.8-22.15-29-27.53,0,.11-2.62,58.61-32.79,4.9-4.77-8.5-9.25-20.08-8.58-32.34,1-18.45,7.1-20.19,24-18.78-3.57-40.6-4.35-60.85,13.41-93.76,20.59-38.14,58-61.83,98.4-63.65h9.72a113.23,113.23,0,0,1,35.95,7.42c32.8,12.61,41,26.61,61.54,50.52,4.37,7.46,35.88,21.92,50.7-18.24l23.18-93C383,305,348.72,305,245.76,305c-7.29,0-14.32.25-21.23.6h-41q-139.26,0-139.25,139.26V563.7Q44.28,703,183.53,703H435.64V525.82a15.72,15.72,0,0,0,0-7Z" d="M209.48 435.8c-13.38 1-23.33 21.32-22.22 45.42s12.88 42.87 26.27 41.89 23.33-21.32 22.21-45.43S222.87 434.82 209.48 435.8zM271.17 479.52c-.59 24.13 9.83 43.66 23.25 43.62s24.78-19.63 25.35-43.76-9.83-43.66-23.25-43.62S271.74 455.39 271.17 479.52zM800 446.66q-34.22-32.42-81.63-31.82H610.3q-39.62 4.21-61.82 36.62V305.6l-77.43 46.82V703h77.43V538.5q0-26.41 18.3-45.32t44.72-19.51h82.83q25.21-1.2 44.42 15.6 18.6 16.22 18 41.42V703h77.43V519.29Q834.19 474.88 800 446.66zM1218.94 444.86q-32.4-30.62-76.82-30H975.25q-44.43-.58-76.83 30-32.42 27-32.42 69v88.83a86.78 86.78 0 0 0 3.9 25.81A94.86 94.86 0 0 0 881 652.24a84.77 84.77 0 0 0 17.41 19.51q33 30.6 78 30h165.07q44.42.6 77.42-30 32.41-26.4 32.42-68.43V513.89Q1252 471.28 1218.94 444.86zm-40.81 145.25q0 22.21-16.21 37.22-17.42 18-42.62 16.81H998.66q-25.21.6-43.22-16.81a53.65 53.65 0 0 1-16.21-37.82V525.89q0-22.2 16.21-37.82 18-18 43.22-16.8H1119.3q25.21-1.2 42.62 16.8 16.2 15 16.21 37.22zM1514.26 531.29H1378q-13.82.62-23.41-10.2a35.73 35.73 0 0 1-8.41-23.41 31.77 31.77 0 0 1 9-24q8.38-9.6 21.6-9.6h181.28l15-48.62h-213.7q-36-1.2-60 25.8Q1276 466.47 1276 500.68t23.41 59.42q24 26.43 60 25.21h142.27a25.18 25.18 0 0 1 21.61 9.61 31.61 31.61 0 0 1 9.6 24.61 35.12 35.12 0 0 1-9 24 30.93 30.93 0 0 1-23.42 10.2H1297.57L1282 703h232.29q36 .59 60.63-25.81a91.17 91.17 0 0 0 0-120.65Q1550.26 530.1 1514.26 531.29zM1789.17 648.94q-22.82 2.41-39-13.2a55.52 55.52 0 0 1-10.2-34.22V465.27h95.44l16.8-50.43H1740V305l-79.23 47.42v62.42H1608.5l-16.81 50.43h69V613.53q-3 37.8 22.8 66 31.21 25.82 72.64 22.81H1857l18-53.42z"/></svg>